<svg id="Layer_1" data-name="Layer 1" xmlns="http://www.w3.org/2000/svg" viewBox="0 0 765.11 768.82"><path d="M826.89,89a90.29,90.29,0,0,0-9.31-.93c-10.8-.74-20.54,4.92-31.19,5.22a28.42,28.42,0,0,0-15.72,5.48c-2.7,1.91-5.49,2.42-8.17.79-4.24-2.57-7.07-1-9.51,2.49a32.17,32.17,0,0,1-17.29,12.7c-20.27,6.1-31.84,23.6-46.66,36.56-8.14,7.12-12.11,18.74-16.62,29.06-8.25,18.93-8,39.4-11,59.33-2,13.33.12,25.23,5.49,37.39,8.4,19,15.64,38.44,27.37,56,15,22.45,15.91,48.14,13.79,74.11-.21,2.5-.86,4.13-3.88,2.49-2.41-1.31-3.91-6-6.77-4-2.31,1.62-.36,5.84-.48,8.9a34.25,34.25,0,0,0,.48,8.1c2,9.76-1.94,17-8.4,24.05-8.67,9.43-8.31,9.77-16.55-.43-.13-.16-.24-.34-.38-.5-.8-.89-1.35-2.36-2.84-2s-1.2,2-1.32,3.12c-.32,3.32-.61,6.63-.86,10-.33,4.45-2.22,4.41-5,1.8-4.59-4.24-9-8.63-13.83-12.64-1.75-1.47-3.35-4.6-6.19-3.25s-1.28,4.49-1.17,6.8c.19,3.74.84,7.44,1.2,11.17.16,1.57,1.06,3.68-.9,4.46-2.48,1-3.2-1.44-3.84-3.06-2.23-5.62-4.42-5.17-6.9-.19A16.05,16.05,0,0,1,628.3,465c-1.16,1.37-1.54,3.92-3.77,3.74-2.56-.21-2.87-2.77-3.3-4.73-1-4.58-3.42-6.41-8.39-6.15a11,11,0,0,1-10.78-6.16c-1.34-2.53.33-7.42-3.51-7.33-1.86,0-3.63,4.57-5.44,7.07a3.89,3.89,0,0,1-.34.52c-1.73,1.65-3.1,4.65-6,3.27-3.88-1.82-8.46-3.24-9.91-8-1-3.4,1.41-5.62,4-7,5.9-3.22,2.75-4.95-.84-6.89-8.07-4.36-16-9.17-25.86-6.59-1.26.32-3.3.57-3.45-1.49-.1-1.36,1.5-1.79,2.73-2.11s2.43-.61,3.62-1c4.33-1.33,4.77-3.06,1.18-6.25-7.56-6.7-7.44-6.84,1.64-11.92.54-.3,1.13-.54,1.66-.86,1.18-.72,3.14-1,2.72-2.88-.36-1.63-2.22-1.71-3.58-2-3.26-.66-6.57-1.06-9.83-1.69-4.53-.86-5.09-2.73-1.8-6.17,7-7.37,13.89-14.95,20.8-22.45,1.11-1.2,2.63-2.37,1.42-4.27a3.79,3.79,0,0,0-4.41-1.51c-1,.24-2,.62-3,.94a82.51,82.51,0,0,1-39.45,3.13c-4.57-.77-6.45-2.21-3-6.78s6.2-9.38,9.18-14.15c1-1.54,2.5-3.31,1-5.09s-3.42-.51-5.08.3c-2.43,1.18-4.85,2.4-7.26,3.61-1.74.88-3.61,3.22-5.38.73-1.46-2.07.72-3.73,1.81-5.46a77.71,77.71,0,0,1,19-20.43c1.1-.84,3-1.37,2.3-3.21s-2.43-1.21-3.8-1.5c-6.09-1.31-12.16-2.73-18.28-3.92-3.25-.63-3.78-2-2-4.67,3.62-5.33,7.12-10.75,10.78-16.06,1.23-1.79,2.65-3.49.77-5.52-1.63-1.76-3.48-1.53-5.65-.5-4.31,2.06-8.87,3.61-13.22,5.6s-7.54,1.16-9.5-3.53a13.9,13.9,0,0,0-3.15-4.57c-1.69-1.61-1.9-3-.62-4.89,1.89-2.73,3.11-6.47,5.67-8.1,12.23-7.75,17.76-20.66,25.49-31.87,1.3-1.89,4.37-3.92,2.66-6.42s-5.3-1.8-8.17-1.84a11.33,11.33,0,0,0-3,.65c-4.71,1.28-7.78,4.47-10.38,8.45-2.38,3.63-4.35,7.68-8.1,10.19-2.76,1.84-5.52,1.49-8-.81-1.67-1.56-1.88-3.24-.27-4.89,10.69-11,19.29-24.1,32.87-32.1,8.49-5,11.71-12.52,11-22.1-.25-3.48-1-5.25-4.9-3-10.22,6-20.54,11.91-30.88,17.74-6.17,3.49-12.45,6.78-18.68,10.16.37-3.67,2-6.18,2.64-8.92.56-2.44,3.86-5.37,1.31-7.2s-6-.09-8.8,1.41a19.16,19.16,0,0,0-3.35,2.79c-4.56,4.14-7.45,9.45-10.36,14.76-1.74,3.15-3.38,6.42-7.72,9.34v-18c0-1.05.07-2.25-1.11-2.67s-1.76.66-2.45,1.42c-3.09,3.36-6.49,6.49-9.26,10.1-3.53,4.62-5,2.58-6.53-1.39-3.87-10.15-3.24-20.44-.92-30.72,2.93-13,7.93-25.5,8.35-39,.06-1.9,1.3-4.68-1.36-5.46-2-.59-2.87,2-4,3.39-5.49,6.52-10.52,13.47-17.2,18.88-2.76,2.24-6.65,4.55-9.55,2.28-2.46-1.92,1.54-4.5,2.28-6.94a3.26,3.26,0,0,1,.31-.54c.77-1.32,1.33-2.69.07-4s-2.64-.74-4,0c-5.73,3-11.7,5.51-17.13,8.93s-5.64.87-5.86-3.64c-.18-3.54,2-8.93-2-10.18-4.38-1.37-5.1,4.61-6.92,7.46-3.06,4.8-6.11,5.43-10.67,2.48a6.16,6.16,0,0,1-3.16-6.24c.29-3.73.47-7.48.64-11.22.05-1.21.3-2.64-1.14-3.26s-2.29.53-3.11,1.43c-1.83,2-3.76,3.92-5.41,6.06-2.63,3.42-3.43,2-4.78-1.13-1.76-4.08-1.52-8.88-4.61-13.61-3,5.9-5.37,10.92-8,15.8-1,1.83-1.59,4.5-4.91,3.61a24,24,0,0,1-17.1-19.45c-.14-1-.29-2.06-.44-3.09-1.23-8.51-1.19-8.41-8.81-4-4.54,2.61-8.54,5.83-14.81,4.81-17.82-2.9-33.81-10-49.2-19-12.49-7.34-26-12-40.56-9.45-13.09,2.27-26.16,5.44-38.2,11.36-6.89,3.39-12.67,8.88-14.49,16.4-1.91,7.94-5.76,14.55-10.07,21.16a26.14,26.14,0,0,0-3.06,6.79c-3.73,12.49,7.13,25,19.82,22.93q2.47-.4,4.95-.75c1-.15,2.16-.33,2.84.67s0,1.94-.63,2.79c-.86,1.17-1.76,2.32-2.53,3.55-7.88,12.47-1.16,25.24,13.7,26.33a32.15,32.15,0,0,0,22.25-6.61c3.3-2.48,5-2,6.11,2,1.92,7.24,3.77,14.52,6.16,21.61,2.28,6.74,1.18,12.36-3.09,18.05-3.73,5-6.34,10.76-9.74,16-10.2,15.75-9.47,30.84,2.07,45.64,3.17,4.06,6.58,8.06,8.15,13.22,3.29,10.77-3.38,19.75-14.41,18.39-21.5-2.65-41.05-9.24-53.7-28.71a45.78,45.78,0,0,0-13.44-12.9c-10.47-6.92-21.67-9.94-33.59-3.8-3.2,1.64-7.82,3.84-7.8,7.19s5.26,2.95,8.22,4.19a5.09,5.09,0,0,1,.59.19c2.27,1.33,6.47.86,6.73,3.62.28,3.08-3.94,3-6.12,4.36-9,5.7-18.51,10.8-20.93,22.62-.74,3.61-.06,5.29,4,4.4,3.44-.75,7-1.12,10.4-2,3.89-1,5.79-.6,4.11,4.06-1.92,5.28-3.55,10.66-5.31,16-.44,1.34-1.75,2.82-.59,4.06,1.62,1.72,3-.25,4.34-1,6.77-3.65,13.92-7,21.27-2.78,7.16,4.12,14.8,6.55,22.58,8.77,18.88,5.37,36.59,13.86,54.95,20.59,11.53,4.23,23.31,5.64,35.5,2a253.38,253.38,0,0,0,26.33-9.66c1.5-.64,2.94-2.13,4.54-.76s.07,3.1-.33,4.58c-1.93,7.15-4,14.28-6.22,22.38,5.77-1.84,10.93-3.17,15.83-5.13s6-.3,6.56,4.44a22.93,22.93,0,0,1-4.32,16.43c-6.93,9.88-14.37,19.48-20.43,29.88-16.17,27.74-28.35,57.43-41.26,86.77-6.9,15.67-10.4,32.39-16.94,48.15-6.92,16.69-14.26,33.27-19.19,50.74-7.18,25.43-14.79,50.75-21.55,76.3-4.74,17.91-11.36,35.32-14.46,53.64-1.73,10.23-1,20.41,6.75,28,7.94,7.82,12.28,17.59,17.54,27,12.62,22.58,31,36.09,58,35.39,19.42-.51,31.52-14.53,45.65-24.78a4,4,0,0,0,1.23-2.15c1.79-7.29,6.75-12.29,12.17-17a29.79,29.79,0,0,0,7.73-10.47c5.95-13.07,12-26.11,17.82-39.24,1.91-4.3,3.38-6,7.82-1.93,5.67,5.14,12.19,9.39,18.48,13.82,1.81,1.27,3.71,2.63,6.17,2.82,19.61,1.46,38.27-1.11,52.53-16,9.29-9.74,20.47-14.61,33.11-17.35,15.42-3.34,30.5-7.28,43.95-16.32,7.8-5.25,17.41-5.55,26-2.32A105.34,105.34,0,0,0,514,732.57c8,.48,13.88-.32,18.73-7.55,5.12-7.63,8.64-8.09,17.11-4.63,2.29.94,4.21,1.24,6.52.11,15.48-7.59,30.31-5,44.77,3,3.81,2.12,7.86,6,11.48,5.69,4.55-.41,5-6.9,7.43-10.64,2-3.13,3.68-3.86,7-1.94,5.91,3.47,12,6.59,18.07,9.82,1.35.72,2.78,2.57,4.3.54,5.85-7.83,12.89-7.92,20.85-3.61,3.55,1.92,4.88.08,5.13-3.4.33-4.78.61-9.58,1.3-14.31,1.28-8.67,9.88-19,16-18.62,16,1,30.61-4.08,44.31-11.2,22.72-11.81,46-17.62,71.67-12.5,10.35,2.06,16.48-3.09,18.9-13.51,2.31-10,.09-18.94-5.46-27.31-3.68-5.53-7.82-10.71-11-16.66-15.38-29.07-30.86-58.09-46.67-86.93A30.85,30.85,0,0,1,762,493.7c1.36-4.37,3-8.67,4.43-13,6.94-20.55,13.71-41.09,11.89-63.36-1.34-16.5-5.78-32.34-9-48.45A152.25,152.25,0,0,0,752,322.28c-8.66-15-18.76-29-27.51-43.92-11.66-19.85-16.75-41.05-12.4-64.13,2.82-15,10.89-27.35,18.74-39.86C746,150.18,765.69,131,792.31,119.55c11.08-4.78,21.86-10.23,32.81-15.31a12.71,12.71,0,0,0,6.43-5.62C834.06,93.81,832.29,89.93,826.89,89ZM289,558.58c0,3.61-1.14,5.33-5.15,5a114.67,114.67,0,0,0-14.36,0c-5.09.26-6.15-2.1-5-6.5,1-4,1.68-8.17,2.81-12.17,2.62-9.25-.72-17.65-3.44-26.17-.72-2.25-2.07-1.93-3.91-1.38-12.9,3.83-22.06,10.24-25.56,24.9-11.87,49.81-24.86,99.36-37.43,149-4.39,17.34-10.51,34.22-14.12,51.79a45.26,45.26,0,0,0,1.11,24c3.83,11.43,16.41,15.56,26.26,8.71,10.15-7.06,14.51-18,19.22-28.64,7.84-17.7,11.47-36.46,13.4-55.6.16-1.66.1-3.33.22-5,.36-4.92-.85-7-6.71-6.08-14.89,2.37-14.94,2-13.45-13,.37-3.72.92-7.46.92-11.19,0-6.59,4.19-8.66,9.62-9.17,14.92-1.43,29.87-2.57,44.79-4,4.63-.45,6.33.68,5.72,5.74-3.34,27.69-5,55.61-10.78,82.95a155.56,155.56,0,0,1-19.95,49.6c-.91,1.48-1.83,2.83-3.69,3-7.94.85-11.79,6.36-14.6,12.95-3.08,7.2-6.85,13.48-15.9,13.77a3.26,3.26,0,0,0-2.87,2.11c-3.83,8.32-11.88,9.79-19.46,11.9-3.76,1.05-7.22.05-10.78-1.72-11.41-5.64-18.16-15.67-24.91-25.7-4.88-7.25-9.39-14.71-15.39-21.18-4.88-5.26-4.78-11.78-3-18.28,6.17-23.1,12.82-46.1,18.6-69.3,10.22-41.06,24.35-80.84,38.21-120.73,5.46-15.71,8.63-32.19,16-47.26,10-20.55,37.23-33.35,59.56-28.08,7.79,1.84,12.42,6.62,13.48,14.5a125.66,125.66,0,0,1,.6,27.42C289,542.75,288.93,550.67,289,558.58Zm80.91,86.82c-.87,17.46-1.63,34.93-3.19,52.36-.91,10.24-4.38,19.9-5.65,30-.15,1.26-.77,3-2,2.78-6.28-.95-5.18,3.54-5.56,7.07-.21,2,.34,4.74-2.19,5.26-2.35.48-2.61-2.29-3.38-3.83-1.71-3.43-3.47-2.9-5.62-.48-1.37,1.56-2.89,3-4.38,4.45-3.23,3.16-6.34,5.52-10,.24-1.62-2.34-3.9-2.34-5.41.46-1.69,3.14-3.39,2.83-5.83.65-5.23-4.68-12.23-7.07-16.54-13-6.26-8.66-4.47-18.4-3.55-27.8,4-41.23,8.37-82.43,12.68-123.63,2.11-20.08,4.81-40.08,8.27-60,4.14-23.87,24.4-27.62,39.26-24.22,10.07,2.3,17.08,11.36,17.58,22.4.38,8.31.08,16.65.08,25h.34Q372.4,594.25,369.93,645.4Zm45.76,65.28c-4.76.42-9.59.05-14.35.49-5.65.52-7.57-1.44-7.53-7.34.27-32.7.13-65.4.13-98.11s0-65.4,0-98.11c0-7.29,0-7.12,7.24-5,8.38,2.42,16.87,4.46,25.3,6.75,18,4.89,25,13,26.85,31.45,4.08,40.84,6.52,81.72,6.65,122.81C460.07,686.16,435.43,708.94,415.69,710.68Zm113.42-23.92c-5.15,1.65-10.3,3.37-15.25,5.52-5.11,2.2-10.33.48-15,1.21a74.26,74.26,0,0,0-16.05.71c-7.74,1.34-9.57-.15-8.49-8.14,1.54-11.33,3.59-22.59,5.68-33.84,5.12-27.42,9.46-55,13.46-82.56.71-4.93,1.61-9.84,2.3-14.77.93-6.71-2.71-10-8.76-11.46-3.65-.85-7.34-1.57-11-2.48-4.79-1.2-7.18-4-5.7-9.16.17-.59.22-1.23.38-1.83,2.52-9.59,2.55-9.54,12.21-7.56,11,2.26,22,4.57,33.08,6.42,5,.84,6.64,3,6,8-3.58,26.6-7,53.23-10.42,79.86-1.78,13.83-3.33,27.7-5.23,41.51-.64,4.66,1.27,4.88,4.91,4,7.27-1.8,14.65-3.2,21.88-5.14,4.09-1.11,6.35-.58,8.13,3.8C547,674.94,543.81,682.05,529.11,686.76Zm53.53-4.5c-7.64,1.16-12.81-1.57-14.5-9.25-3.35-15.21-6-30.58-8.82-45.89q-6.65-35.57-13.18-71.15c-1-5.72-1.7-11.52-2.59-17.27-.5-3.24.47-5.15,4-5.53,18.4-1.95,14.35-4.57,19.14,11.94,11.51,39.64,17.92,80.36,25.91,120.74.2,1,.3,2,.39,2.64C593,676.6,589.42,681.23,582.64,682.26Zm76.86-18.68c-10.3,1.43-20.61,2.65-29.88,8.2-3.34,2-11.15-3.12-12.58-7.67-7.36-23.43-12.88-47.37-19.31-71.05-5-18.28-9.53-36.67-14.6-54.92-1.41-5.1-.78-7.27,4.94-8.46,18-3.74,13.47-4.45,18.07,10.71,9.59,31.63,18.44,63.49,27.69,95.23,2.45,8.39,2.62,8.34,11.37,6.28,14-3.29,14-3.29,17,10.5.48,2.23,1,4.46,1.19,5.35C663.76,662,662.18,663.21,659.5,663.58Zm51.76-11.85c-6.67,2.11-13.63,1.2-19.21,2.29-12.46-.18-16-2.33-19.37-13.33-12-38.78-26.28-76.82-37.76-115.77-1-3.28-.9-5,3-5.62,4.72-.73,9.39-1.84,14-3,4.35-1.1,4.84,2.22,5.76,4.86q10.56,30,21,60.12c4.88,14,10,27.81,14.62,41.85,1.36,4.16,3.34,5.31,7.31,4.23,3-.83,6.09-1.39,9.13-2.1,9.44-2.2,9.44-2.2,12,7.23C724.32,642.15,720.67,648.76,711.26,651.73Zm6.87-161.61c10.62-3.87,13.36-3.51,17.88,4.5,9.72,17.21,19,34.67,28.46,52q17.14,31.55,34.24,63.11c3.06,5.69,5.9,11.54,5.52,17,.17,2.57.39,4-1.07,4.55-1.85.68-2.68-.87-3.19-2.17-1.65-4.27-4.23-4-8-2.52-9.53,3.7-14.7,1.5-18.83-8.19-1.82-4.26-4.11-5-8.2-3.71s-9.26.82-8.63,7.41a16.84,16.84,0,0,1,0,1.88c-.23,8.32-2.44,12.18-7.28,12.72-7.9.89-14.33-3-16.26-10.59-2.14-8.46-3.73-17.06-5.42-25.63q-7.85-39.78-15.58-79.6c-1-5.31-2.13-10.61-2.92-16C707.78,497.45,710.8,492.8,718.13,490.12Zm-375.8,24.15c-3.49,3.85-7,7.65-7.84,13.18-2.65,17.27-5.61,34.49-8.21,51.77-4.24,28.19-8.06,56.45-12.55,84.6a101.25,101.25,0,0,0-.11,28.51,22.56,22.56,0,0,0,7,14.29c1.6,1.47,3.11,2.75,5.5,2,6.15-2,11.57-4.68,13.52-11.65,1.45-5.22,3.17-10.35,3.61-15.8,1.49-18.67,3.1-37.34,4.52-56,2.08-27.62,4-55.25,6-82.53a78.25,78.25,0,0,1,.06-9.1c.89-7.24-2.22-12.93-6.48-18.28C345.94,513.36,344.33,512.05,342.33,514.27ZM431,569.83c-.32-11.79.28-23.86-6.55-34.46-1.35-2.1-1.16-5.89-5.07-5.2s-3.36,4.29-3.54,7c-1.07,16-2,32-3,48-1.2,30.61-1,61.18,2.14,91.69.68,6.64,3.06,7.82,8.89,4.5,6.25-3.56,9-9.06,8.87-16-.12-9.79-.39-19.57-.56-29.35C431.77,614,431.57,591.89,431,569.83ZM747.06,594c1.73,7.27,7.19,1.87,10.84,1.65,4.47-.26,2.33-3.38,1.48-5.48-5.66-14-11.4-28-17.11-42-.61-1.48-.8-3.74-2.94-3.35s-1.42,2.58-1.38,4.94C740.83,564,743.5,579.08,747.06,594Z" transform="translate(-67.56 -88)"/></svg>